<svg version="1.1" id="Layer_1" xmlns="http://www.w3.org/2000/svg" xmlns:xlink="http://www.w3.org/1999/xlink" x="0px" y="0px"
	 width="100%" viewBox="0 0 1549 1333" enable-background="new 0 0 1549 1333" xml:space="preserve">
<path fill="#0D4C92" opacity="1.000000" stroke="none" 
	d="
M720.000000,1.000003 
	C756.687561,1.000000 793.375122,1.000000 830.504639,1.425454 
	C831.793640,2.225657 832.616699,2.855356 833.491272,2.937608 
	C851.732605,4.653265 870.028503,5.901698 888.212158,8.086351 
	C906.513794,10.285177 924.822144,12.790384 942.919800,16.248528 
	C977.850952,22.923285 1012.257324,31.824060 1046.178589,42.571217 
	C1084.137573,54.597664 1121.033447,69.305260 1156.673706,87.016014 
	C1175.004272,96.125023 1193.062866,105.851295 1210.785156,116.093269 
	C1226.895020,125.403381 1242.754883,135.252792 1258.042603,145.848999 
	C1273.878906,156.825409 1289.160156,168.654953 1304.191772,180.724564 
	C1318.225708,191.993103 1332.170288,203.484695 1345.159180,215.917648 
	C1366.380859,236.230957 1387.391846,256.836090 1405.540894,280.070374 
	C1416.496460,294.095673 1427.716553,307.945129 1438.032471,322.432892 
	C1460.291504,353.694122 1479.900879,386.603851 1495.222656,421.827179 
	C1504.807861,443.862396 1514.059204,466.149200 1521.609131,488.936462 
	C1530.973999,517.200562 1538.424072,546.106506 1542.076416,575.796753 
	C1544.188965,592.969543 1546.004639,610.178711 1548.072266,627.357300 
	C1548.225464,628.630432 1549.335083,629.788452 1550.000000,631.000000 
	C1550.000000,657.354248 1550.000000,683.708435 1549.574585,710.504578 
	C1548.774292,711.797424 1548.168945,712.619690 1548.058838,713.503540 
	C1546.022949,729.852600 1544.317871,746.247742 1541.996460,762.555298 
	C1538.019531,790.493591 1530.671631,817.648926 1522.246704,844.539429 
	C1513.255371,873.238159 1501.665161,900.892273 1488.932983,928.089844 
	C1485.953125,934.455078 1482.611328,940.650818 1479.096436,947.595520 
	C1478.094116,945.857483 1477.468628,944.932800 1476.999390,943.934814 
	C1471.940918,933.174744 1466.979858,922.368225 1461.851685,911.641541 
	C1449.538330,885.885925 1437.077515,860.200684 1424.814087,834.421326 
	C1415.104980,814.011414 1405.644043,793.483765 1395.996094,773.044617 
	C1380.922974,741.112854 1365.795410,709.206726 1350.670532,677.299316 
	C1341.116455,657.143738 1331.510132,637.013062 1321.954590,616.858154 
	C1309.922607,591.479980 1297.966064,566.065918 1285.889038,540.709351 
	C1274.395996,516.579224 1262.849609,492.474152 1251.216553,468.411224 
	C1239.221924,443.600037 1227.700439,418.532562 1214.822388,394.185242 
	C1205.515869,376.590607 1195.019531,359.520416 1183.811157,343.062592 
	C1169.092285,321.450043 1151.141479,302.874054 1128.205688,289.462067 
	C1110.523315,279.122101 1091.421875,274.029816 1071.268188,273.195190 
	C1060.582642,272.752594 1049.783813,273.994537 1039.090332,275.033844 
	C1021.666260,276.727386 1005.812012,283.356750 991.200439,292.571838 
	C974.712158,302.970459 960.895447,316.582275 948.832397,331.817902 
	C933.023865,351.783997 919.362366,373.242981 908.121399,396.062988 
	C895.498291,421.688965 883.728943,447.738220 871.758240,473.681763 
	C865.964294,486.238525 860.593750,498.990021 854.969421,511.625732 
	C846.925354,529.697693 838.793396,547.730530 830.759094,565.806824 
	C825.824158,576.909851 821.001465,588.062805 815.916687,599.677002 
	C878.078308,599.677002 939.652344,599.677002 1001.449402,599.677002 
	C1022.677795,553.466064 1043.946777,507.166840 1065.215698,460.867615 
	C1068.136475,464.535767 1069.578003,468.002197 1071.166748,471.399902 
	C1080.740845,491.875153 1090.390137,512.315308 1099.934082,532.804565 
	C1110.670532,555.854065 1121.294678,578.955933 1132.018311,602.011414 
	C1143.649292,627.017273 1155.301880,652.013184 1167.012817,676.981689 
	C1178.217651,700.871155 1189.594727,724.680298 1200.742920,748.596069 
	C1215.251343,779.720825 1229.585693,810.926697 1244.038696,842.077454 
	C1254.949585,865.593872 1265.926025,889.079834 1276.877930,912.577209 
	C1293.403442,948.032166 1309.935913,983.483887 1326.459839,1018.939514 
	C1337.541016,1042.716187 1348.615967,1066.495605 1359.684570,1090.278198 
	C1361.124878,1093.373047 1364.001221,1096.762695 1363.501831,1099.525757 
	C1363.004150,1102.278320 1359.178101,1104.505615 1356.666748,1106.805420 
	C1341.636963,1120.567993 1327.139648,1134.989868 1311.362915,1147.839111 
	C1291.568970,1163.959839 1271.213501,1179.505737 1250.168579,1193.941162 
	C1231.573486,1206.696167 1212.153442,1218.433594 1192.274536,1229.083862 
	C1168.290527,1241.933594 1143.663940,1253.659668 1118.883667,1264.921509 
	C1102.108154,1272.545532 1084.777222,1279.077393 1067.351807,1285.106812 
	C1046.661743,1292.265503 1025.847900,1299.321899 1004.651123,1304.703003 
	C968.608826,1313.852295 932.323853,1322.187988 895.223877,1326.086182 
	C875.537659,1328.154541 855.828430,1330.003784 836.141968,1332.070190 
	C834.709595,1332.220459 833.378296,1333.334106 832.000000,1334.000000 
	C795.312439,1334.000000 758.624878,1334.000000 721.494141,1333.573486 
	C720.370605,1332.780273 719.711365,1332.142944 719.006775,1332.088135 
	C709.449097,1331.346069 699.876160,1330.790039 690.325134,1329.975708 
	C679.639587,1329.064453 668.906799,1328.378784 658.312256,1326.803833 
	C640.909485,1324.216675 623.589417,1321.060913 606.256104,1318.021362 
	C570.876038,1311.816895 536.214233,1302.675049 502.126770,1291.480103 
	C457.093109,1276.690186 413.138977,1259.171143 371.602386,1236.150635 
	C349.838654,1224.088989 328.182404,1211.750488 307.150116,1198.471924 
	C277.556854,1179.788330 249.743454,1158.579834 223.704285,1135.151001 
	C209.846588,1122.682495 195.907471,1110.253540 182.791840,1097.026611 
	C171.422913,1085.561035 160.772141,1073.317017 150.510605,1060.836182 
	C137.224518,1044.676758 123.775925,1028.531738 111.980408,1011.297058 
	C98.408905,991.467407 86.141472,970.700745 74.078644,949.894043 
	C58.400585,922.851685 45.561329,894.356140 35.605042,864.760620 
	C27.848553,841.704041 21.099493,818.239746 15.316126,794.610718 
	C11.025875,777.082031 8.738537,759.037720 6.072606,741.146606 
	C4.518919,730.719727 4.020097,720.137573 2.905031,709.640320 
	C2.805500,708.703308 1.659821,707.877441 1.000002,707.000000 
	C1.000000,679.312439 1.000000,651.624878 1.423265,623.498047 
	C2.222786,622.213135 2.835152,621.395874 2.940402,620.517700 
	C5.019888,603.168945 6.300885,585.686768 9.239881,568.487305 
	C14.122137,539.915405 21.213488,511.809021 30.384209,484.279785 
	C41.613430,450.571167 55.853836,418.148193 72.635506,386.845062 
	C77.155922,378.413055 81.567581,369.869324 86.804924,361.885803 
	C99.003868,343.290497 111.170753,324.635468 124.309082,306.707031 
	C135.415131,291.551819 147.403839,276.972748 159.859985,262.898102 
	C171.566010,249.671082 184.076508,237.106461 196.819336,224.860458 
	C209.706268,212.475967 222.780640,200.174133 236.728592,189.032501 
	C257.572113,172.382706 278.740875,156.038193 300.696625,140.906464 
	C333.627777,118.210609 368.469269,98.632927 404.920654,82.065140 
	C421.438629,74.557419 437.909027,66.864578 454.795715,60.265720 
	C487.185150,47.608799 520.253601,36.867493 554.042786,28.576534 
	C573.047852,23.913197 592.219116,19.882561 611.408936,16.032440 
	C624.952759,13.315094 638.612427,11.084185 652.296143,9.181483 
	C665.033691,7.410359 677.861145,6.253105 690.668518,5.029516 
	C699.717407,4.164997 708.802612,3.683829 717.858887,2.886993 
	C718.622009,2.819843 719.288574,1.654920 720.000000,1.000003 
M650.500000,1100.000000 
	C688.322388,1099.999756 726.144714,1099.999878 763.967102,1099.998291 
	C766.415161,1099.998169 768.553162,1100.271362 769.980774,1097.127686 
	C781.514099,1071.730957 793.212585,1046.408325 805.002380,1021.129028 
	C814.537598,1000.684143 824.326416,980.357605 833.898560,959.929749 
	C844.676453,936.928589 855.433411,913.916382 865.964294,890.801758 
	C867.949463,886.444336 870.353149,884.853271 875.301331,884.870056 
	C934.617615,885.071350 993.934875,885.000000 1053.251831,884.999878 
	C1055.345825,884.999878 1057.439941,884.999878 1059.641846,884.999878 
	C1059.641846,834.656616 1059.641846,785.101990 1059.641846,735.301331 
	C1057.843994,735.187378 1056.378296,735.013428 1054.912598,735.013245 
	C955.773254,735.000427 856.633972,735.018738 757.494690,734.931091 
	C753.947266,734.927917 751.875671,735.883850 750.955627,739.410889 
	C750.462769,741.300415 749.429321,743.055420 748.586670,744.846252 
	C740.289734,762.480103 731.934814,780.086792 723.686768,797.743408 
	C708.114929,831.078064 692.609863,864.443909 677.061829,897.789734 
	C671.079834,910.619263 665.024963,923.414917 659.057922,936.251404 
	C644.584045,967.388367 630.171509,998.553711 615.675964,1029.680542 
	C607.737732,1046.726562 599.668579,1063.711548 591.685120,1080.736572 
	C588.783264,1086.925049 585.958679,1093.149902 582.803223,1100.000000 
	C605.566895,1100.000000 627.533447,1100.000000 650.500000,1100.000000 
z"/>
<path fill="#000000" opacity="1.000000" stroke="none" 
	d="
M832.468628,1334.000000 
	C833.378296,1333.334106 834.709595,1332.220459 836.141968,1332.070190 
	C855.828430,1330.003784 875.537659,1328.154541 895.223877,1326.086182 
	C932.323853,1322.187988 968.608826,1313.852295 1004.651123,1304.703003 
	C1025.847900,1299.321899 1046.661743,1292.265503 1067.351807,1285.106812 
	C1084.777222,1279.077393 1102.108154,1272.545532 1118.883667,1264.921509 
	C1143.663940,1253.659668 1168.290527,1241.933594 1192.274536,1229.083862 
	C1212.153442,1218.433594 1231.573486,1206.696167 1250.168579,1193.941162 
	C1271.213501,1179.505737 1291.568970,1163.959839 1311.362915,1147.839111 
	C1327.139648,1134.989868 1341.636963,1120.567993 1356.666748,1106.805420 
	C1359.178101,1104.505615 1363.004150,1102.278320 1363.501831,1099.525757 
	C1364.001221,1096.762695 1361.124878,1093.373047 1359.684570,1090.278198 
	C1348.615967,1066.495605 1337.541016,1042.716187 1326.459839,1018.939514 
	C1309.935913,983.483887 1293.403442,948.032166 1276.877930,912.577209 
	C1265.926025,889.079834 1254.949585,865.593872 1244.038696,842.077454 
	C1229.585693,810.926697 1215.251343,779.720825 1200.742920,748.596069 
	C1189.594727,724.680298 1178.217651,700.871155 1167.012817,676.981689 
	C1155.301880,652.013184 1143.649292,627.017273 1132.018311,602.011414 
	C1121.294678,578.955933 1110.670532,555.854065 1099.934082,532.804565 
	C1090.390137,512.315308 1080.740845,491.875153 1071.166748,471.399902 
	C1069.578003,468.002197 1068.136475,464.535767 1065.215698,460.867615 
	C1043.946777,507.166840 1022.677795,553.466064 1001.449402,599.677002 
	C939.652344,599.677002 878.078308,599.677002 815.916687,599.677002 
	C821.001465,588.062805 825.824158,576.909851 830.759094,565.806824 
	C838.793396,547.730530 846.925354,529.697693 854.969421,511.625732 
	C860.593750,498.990021 865.964294,486.238525 871.758240,473.681763 
	C883.728943,447.738220 895.498291,421.688965 908.121399,396.062988 
	C919.362366,373.242981 933.023865,351.783997 948.832397,331.817902 
	C960.895447,316.582275 974.712158,302.970459 991.200439,292.571838 
	C1005.812012,283.356750 1021.666260,276.727386 1039.090332,275.033844 
	C1049.783813,273.994537 1060.582642,272.752594 1071.268188,273.195190 
	C1091.421875,274.029816 1110.523315,279.122101 1128.205688,289.462067 
	C1151.141479,302.874054 1169.092285,321.450043 1183.811157,343.062592 
	C1195.019531,359.520416 1205.515869,376.590607 1214.822388,394.185242 
	C1227.700439,418.532562 1239.221924,443.600037 1251.216553,468.411224 
	C1262.849609,492.474152 1274.395996,516.579224 1285.889038,540.709351 
	C1297.966064,566.065918 1309.922607,591.479980 1321.954590,616.858154 
	C1331.510132,637.013062 1341.116455,657.143738 1350.670532,677.299316 
	C1365.795410,709.206726 1380.922974,741.112854 1395.996094,773.044617 
	C1405.644043,793.483765 1415.104980,814.011414 1424.814087,834.421326 
	C1437.077515,860.200684 1449.538330,885.885925 1461.851685,911.641541 
	C1466.979858,922.368225 1471.940918,933.174744 1476.999390,943.934814 
	C1477.468628,944.932800 1478.094116,945.857483 1479.096436,947.595520 
	C1482.611328,940.650818 1485.953125,934.455078 1488.932983,928.089844 
	C1501.665161,900.892273 1513.255371,873.238159 1522.246704,844.539429 
	C1530.671631,817.648926 1538.019531,790.493591 1541.996460,762.555298 
	C1544.317871,746.247742 1546.022949,729.852600 1548.058838,713.503540 
	C1548.168945,712.619690 1548.774292,711.797424 1549.574585,710.973267 
	C1550.000000,918.598938 1550.000000,1126.197876 1550.000000,1334.000000 
	C1310.979126,1334.000000 1071.958252,1334.000000 832.468628,1334.000000 
z"/>
<path fill="#000000" opacity="1.000000" stroke="none" 
	d="
M1550.000000,630.531372 
	C1549.335083,629.788452 1548.225464,628.630432 1548.072266,627.357300 
	C1546.004639,610.178711 1544.188965,592.969543 1542.076416,575.796753 
	C1538.424072,546.106506 1530.973999,517.200562 1521.609131,488.936462 
	C1514.059204,466.149200 1504.807861,443.862396 1495.222656,421.827179 
	C1479.900879,386.603851 1460.291504,353.694122 1438.032471,322.432892 
	C1427.716553,307.945129 1416.496460,294.095673 1405.540894,280.070374 
	C1387.391846,256.836090 1366.380859,236.230957 1345.159180,215.917648 
	C1332.170288,203.484695 1318.225708,191.993103 1304.191772,180.724564 
	C1289.160156,168.654953 1273.878906,156.825409 1258.042603,145.848999 
	C1242.754883,135.252792 1226.895020,125.403381 1210.785156,116.093269 
	C1193.062866,105.851295 1175.004272,96.125023 1156.673706,87.016014 
	C1121.033447,69.305260 1084.137573,54.597664 1046.178589,42.571217 
	C1012.257324,31.824060 977.850952,22.923285 942.919800,16.248528 
	C924.822144,12.790384 906.513794,10.285177 888.212158,8.086351 
	C870.028503,5.901698 851.732605,4.653265 833.491272,2.937608 
	C832.616699,2.855356 831.793640,2.225657 830.973267,1.425454 
	C1070.588989,1.000000 1310.177856,1.000000 1550.000000,1.000000 
	C1550.000000,210.687500 1550.000000,420.375092 1550.000000,630.531372 
z"/>
<path fill="#000000" opacity="1.000000" stroke="none" 
	d="
M1.000002,707.468628 
	C1.659821,707.877441 2.805500,708.703308 2.905031,709.640320 
	C4.020097,720.137573 4.518919,730.719727 6.072606,741.146606 
	C8.738537,759.037720 11.025875,777.082031 15.316126,794.610718 
	C21.099493,818.239746 27.848553,841.704041 35.605042,864.760620 
	C45.561329,894.356140 58.400585,922.851685 74.078644,949.894043 
	C86.141472,970.700745 98.408905,991.467407 111.980408,1011.297058 
	C123.775925,1028.531738 137.224518,1044.676758 150.510605,1060.836182 
	C160.772141,1073.317017 171.422913,1085.561035 182.791840,1097.026611 
	C195.907471,1110.253540 209.846588,1122.682495 223.704285,1135.151001 
	C249.743454,1158.579834 277.556854,1179.788330 307.150116,1198.471924 
	C328.182404,1211.750488 349.838654,1224.088989 371.602386,1236.150635 
	C413.138977,1259.171143 457.093109,1276.690186 502.126770,1291.480103 
	C536.214233,1302.675049 570.876038,1311.816895 606.256104,1318.021362 
	C623.589417,1321.060913 640.909485,1324.216675 658.312256,1326.803833 
	C668.906799,1328.378784 679.639587,1329.064453 690.325134,1329.975708 
	C699.876160,1330.790039 709.449097,1331.346069 719.006775,1332.088135 
	C719.711365,1332.142944 720.370605,1332.780273 721.025513,1333.573486 
	C481.077942,1334.000000 241.155869,1334.000000 1.000000,1334.000000 
	C1.000000,1125.312500 1.000000,916.624878 1.000002,707.468628 
z"/>
<path fill="#000000" opacity="1.000000" stroke="none" 
	d="
M719.531372,1.000003 
	C719.288574,1.654920 718.622009,2.819843 717.858887,2.886993 
	C708.802612,3.683829 699.717407,4.164997 690.668518,5.029516 
	C677.861145,6.253105 665.033691,7.410359 652.296143,9.181483 
	C638.612427,11.084185 624.952759,13.315094 611.408936,16.032440 
	C592.219116,19.882561 573.047852,23.913197 554.042786,28.576534 
	C520.253601,36.867493 487.185150,47.608799 454.795715,60.265720 
	C437.909027,66.864578 421.438629,74.557419 404.920654,82.065140 
	C368.469269,98.632927 333.627777,118.210609 300.696625,140.906464 
	C278.740875,156.038193 257.572113,172.382706 236.728592,189.032501 
	C222.780640,200.174133 209.706268,212.475967 196.819336,224.860458 
	C184.076508,237.106461 171.566010,249.671082 159.859985,262.898102 
	C147.403839,276.972748 135.415131,291.551819 124.309082,306.707031 
	C111.170753,324.635468 99.003868,343.290497 86.804924,361.885803 
	C81.567581,369.869324 77.155922,378.413055 72.635506,386.845062 
	C55.853836,418.148193 41.613430,450.571167 30.384209,484.279785 
	C21.213488,511.809021 14.122137,539.915405 9.239881,568.487305 
	C6.300885,585.686768 5.019888,603.168945 2.940402,620.517700 
	C2.835152,621.395874 2.222786,622.213135 1.423265,623.029419 
	C1.000000,415.734314 1.000000,208.468597 1.000000,1.000000 
	C240.354187,1.000000 479.708435,1.000000 719.531372,1.000003 
z"/>
<path fill="#000000" opacity="1.000000" stroke="none" 
	d="
M650.000000,1100.000000 
	C627.533447,1100.000000 605.566895,1100.000000 582.803223,1100.000000 
	C585.958679,1093.149902 588.783264,1086.925049 591.685120,1080.736572 
	C599.668579,1063.711548 607.737732,1046.726562 615.675964,1029.680542 
	C630.171509,998.553711 644.584045,967.388367 659.057922,936.251404 
	C665.024963,923.414917 671.079834,910.619263 677.061829,897.789734 
	C692.609863,864.443909 708.114929,831.078064 723.686768,797.743408 
	C731.934814,780.086792 740.289734,762.480103 748.586670,744.846252 
	C749.429321,743.055420 750.462769,741.300415 750.955627,739.410889 
	C751.875671,735.883850 753.947266,734.927917 757.494690,734.931091 
	C856.633972,735.018738 955.773254,735.000427 1054.912598,735.013245 
	C1056.378296,735.013428 1057.843994,735.187378 1059.641846,735.301331 
	C1059.641846,785.101990 1059.641846,834.656616 1059.641846,884.999878 
	C1057.439941,884.999878 1055.345825,884.999878 1053.251831,884.999878 
	C993.934875,885.000000 934.617615,885.071350 875.301331,884.870056 
	C870.353149,884.853271 867.949463,886.444336 865.964294,890.801758 
	C855.433411,913.916382 844.676453,936.928589 833.898560,959.929749 
	C824.326416,980.357605 814.537598,1000.684143 805.002380,1021.129028 
	C793.212585,1046.408325 781.514099,1071.730957 769.980774,1097.127686 
	C768.553162,1100.271362 766.415161,1099.998169 763.967102,1099.998291 
	C726.144714,1099.999878 688.322388,1099.999756 650.000000,1100.000000 
z"/>
</svg>